<svg xmlns="http://www.w3.org/2000/svg" version="1.1" xmlns:xlink="http://www.w3.org/1999/xlink" width="1000" height="1000"><g clip-path="url(#SvgjsClipPath1054)"><rect width="1000" height="1000" fill="#f7c2ff"></rect><g transform="matrix(43.75,0,0,43.75,150,150)"><svg xmlns="http://www.w3.org/2000/svg" version="1.1" xmlns:xlink="http://www.w3.org/1999/xlink" width="16" height="16"><svg xmlns="http://www.w3.org/2000/svg" width="16" height="16" fill="none" viewBox="0 0 16 16">
  <g clip-path="url(#a)">
    <path fill="#000" d="m8 0 3.293 3.293a1 1 0 0 1 0 1.414l-1.96 1.96L8 5.333A3.771 3.771 0 0 1 8 0Z"></path>
    <path fill="#000" fill-rule="evenodd" d="m8 16-5.334-5.333a3.771 3.771 0 0 1 0-5.334L7.293 9.96a1 1 0 0 0 1.414 0l4.626-4.627a3.771 3.771 0 0 1 0 5.334L8 16Z" clip-rule="evenodd"></path>
  </g>
  <defs>
    <clipPath id="a">
      <path fill="#fff" d="M0 0h16v16H0z"></path>
    </clipPath>
  <clipPath id="SvgjsClipPath1054"><rect width="1000" height="1000" x="0" y="0" rx="500" ry="500"></rect></clipPath></defs>
</svg></svg></g></g></svg>