<svg xmlns="http://www.w3.org/2000/svg" version="1.1" xmlns:xlink="http://www.w3.org/1999/xlink" xmlns:svgjs="http://svgjs.com/svgjs" width="1000" height="1000"><rect width="1000" height="1000" rx="200" ry="200" fill="#f5b5ff"></rect><g transform="matrix(3.076923076923077,0,0,3.076923076923077,98.30728677602912,104.12994296734149)"><svg xmlns="http://www.w3.org/2000/svg" version="1.1" xmlns:xlink="http://www.w3.org/1999/xlink" xmlns:svgjs="http://svgjs.com/svgjs" width="260" height="260"><svg viewBox="0 0 260 260" xmlns="http://www.w3.org/2000/svg"><path d="m121.212 167.526-65.801 15.231c-2.394.604-4.198 3.005-4.198 5.412v45.297c0 3.81 2.998 6.217 6.8 5.413l91.8-21.247c3.796-.798 5.399-4.406 3.796-7.813l-16.597-34.278c-2.602-5.413 0-11.019 5.8-12.226l60-14.426c4.198-1.006 7.799-5.412 7.799-9.825v-41.89c0-3.803-2.997-6.412-6.8-5.413l-86.596 20.65c-5.405 1.201-7.799 6.412-5.405 11.422l15.203 31.467c2.602 5.413 0 10.825-5.801 12.226Z"></path><path d="m77.817 54.285 17.201 35.277c2.2 4.608 0 9.416-5.003 10.422l-31.801 7.418c-3.996.999-7.195 5.009-7.195 9.013v37.886c0 6.412 5.197 10.422 11.4 9.014l29.601-6.814c3.997-.798 7.196-5.01 7.196-9.014l.201-38.885c0-5.412 4.399-10.824 9.596-12.025l96.998-23.252c2.401-.604 4.205-3.004 4.205-5.412V22.616c0-3.809-3.004-6.411-6.8-5.412L81.619 46.472c-3.802.798-5.405 4.406-3.802 7.813Z"></path></svg></svg></g></svg>
