<svg xmlns="http://www.w3.org/2000/svg" width="54" height="61" viewBox="0 0 54 61" fill="none">
<path fill-rule="evenodd" clip-rule="evenodd" d="M53.6608 17.1403V20.2035C53.6609 20.4994 53.5834 20.7901 53.4362 21.0464C53.289 21.3027 53.0772 21.5155 52.8222 21.6634L42.9944 27.3642L51.7699 32.4414C52.3439 32.7744 52.8204 33.2535 53.1516 33.8304C53.4829 34.4074 53.657 35.0618 53.6566 35.7279V43.8956C53.6574 44.562 53.4834 45.2169 53.1522 45.7942C52.8209 46.3716 52.3442 46.851 51.7699 47.1842L28.6825 60.4965C28.1089 60.8294 27.4581 61.0046 26.7958 61.0046C26.1334 61.0046 25.4827 60.8294 24.909 60.4965L17.3621 56.1125C17.2345 56.0385 17.1286 55.9321 17.0549 55.804C16.9813 55.6758 16.9425 55.5305 16.9425 55.3825C16.9425 55.2345 16.9813 55.0891 17.0549 54.961C17.1286 54.8328 17.2345 54.7264 17.3621 54.6525L42.3089 40.2236C42.3725 40.1866 42.4252 40.1334 42.4619 40.0694C42.4985 40.0055 42.5178 39.933 42.5178 39.8591C42.5178 39.7853 42.4985 39.7128 42.4619 39.6488C42.4252 39.5849 42.3725 39.5317 42.3089 39.4947L33.0451 34.1162C32.7901 33.9683 32.5009 33.8904 32.2065 33.8904C31.9121 33.8904 31.6229 33.9683 31.368 34.1162L6.02071 48.7832C5.82949 48.8941 5.61259 48.9525 5.3918 48.9525C5.171 48.9525 4.9541 48.8941 4.76288 48.7832L1.89505 47.1336C1.32013 46.8001 0.842947 46.32 0.511679 45.7418C0.180411 45.1637 0.0067797 44.508 0.00831082 43.8408V40.4996C0.00816917 40.2776 0.0662217 40.0594 0.176626 39.8671C0.28703 39.6748 0.445891 39.5151 0.637223 39.4041L36.9611 18.4233C37.0246 18.3863 37.0774 18.3331 37.114 18.2691C37.1507 18.2052 37.17 18.1326 37.17 18.0588C37.17 17.985 37.1507 17.9125 37.114 17.8485C37.0774 17.7846 37.0246 17.7314 36.9611 17.6944L27.6804 12.2991C27.4255 12.1511 27.1363 12.0733 26.8419 12.0733C26.5475 12.0733 26.2583 12.1511 26.0033 12.2991L1.26613 26.6016C1.13857 26.6756 0.993852 26.7145 0.846551 26.7145C0.69925 26.7144 0.554562 26.6754 0.42705 26.6013C0.299537 26.5272 0.1937 26.4206 0.120191 26.2923C0.0466814 26.164 0.00809352 26.0186 0.00831082 25.8705V17.1003C0.00751743 16.4339 0.181499 15.779 0.51273 15.2017C0.843961 14.6243 1.32074 14.1449 1.89505 13.8117L24.9761 0.501453C25.5498 0.168627 26.2005 -0.0065918 26.8629 -0.0065918C27.5252 -0.0065918 28.1759 0.168627 28.7496 0.501453L51.7824 13.8517C52.3552 14.186 52.8303 14.6659 53.16 15.2431C53.4897 15.8204 53.6624 16.4747 53.6608 17.1403Z" fill="#7524F9"/>
</svg>