<svg width="96" height="96" viewBox="0 0 96 96" fill="none" xmlns="http://www.w3.org/2000/svg">
<g clip-path="url(#clip0_1995_24609)">
<circle cx="48" cy="48" r="48" fill="black"/>
<path fill-rule="evenodd" clip-rule="evenodd" d="M58.9474 49.9886L75.2467 65.9784C75.4424 66.1676 75.5982 66.3928 75.7052 66.6412C75.8121 66.8895 75.8682 67.156 75.8701 67.4256C75.872 67.6952 75.8197 67.9625 75.7163 68.2122C75.6129 68.462 75.4603 68.6893 75.2673 68.8812L74.0714 70.0504C73.7353 70.3959 73.2912 70.6215 72.8097 70.6914C72.4916 70.7331 72.1681 70.702 71.8644 70.6006C71.5607 70.4991 71.285 70.3302 71.0589 70.1068L51.1554 50.5813C50.8093 50.2424 50.5347 49.8399 50.3474 49.3968C50.1601 48.9537 50.0637 48.4786 50.0637 47.9989C50.0637 47.5192 50.1601 47.0443 50.3474 46.6012C50.5347 46.1581 50.8093 45.7555 51.1554 45.4166L71.0589 25.8911C71.2528 25.7005 71.4831 25.5494 71.7366 25.4462C71.9901 25.3431 72.2619 25.29 72.5363 25.29C72.8108 25.29 73.0826 25.3431 73.3361 25.4462C73.5896 25.5494 73.8199 25.7005 74.0138 25.8911L75.2467 27.1207C75.441 27.311 75.5951 27.5369 75.7002 27.7856C75.8053 28.0343 75.8594 28.3009 75.8594 28.5701C75.8594 28.8394 75.8053 29.106 75.7002 29.3547C75.5951 29.6034 75.441 29.8293 75.2467 30.0195L58.9474 46.0133C58.4129 46.5419 58.1129 47.2564 58.1129 48.001C58.1129 48.7456 58.4129 49.46 58.9474 49.9886ZM37.0489 46.0303L20.7559 30.0363C20.5582 29.8469 20.4008 29.6208 20.2929 29.3712C20.1849 29.1216 20.1285 28.8534 20.127 28.5822C20.1255 28.3111 20.1788 28.0423 20.284 27.7915C20.3891 27.5407 20.544 27.313 20.7395 27.1214L21.9309 25.9481C22.2701 25.6048 22.7145 25.3797 23.1962 25.3071C23.514 25.2667 23.8371 25.2984 24.1405 25.3997C24.4439 25.5011 24.7196 25.6693 24.9463 25.8917L44.8421 45.4175C45.1881 45.7564 45.4625 46.1589 45.6498 46.602C45.837 47.0451 45.9334 47.5201 45.9334 47.9998C45.9334 48.4795 45.837 48.9545 45.6498 49.3976C45.4625 49.8407 45.1881 50.2433 44.8421 50.5822L24.9463 70.108C24.7521 70.2986 24.5215 70.4499 24.2678 70.5531C24.014 70.6563 23.742 70.7094 23.4673 70.7094C23.1926 70.7094 22.9207 70.6563 22.6669 70.5531C22.4131 70.4499 22.1826 70.2986 21.9884 70.108L20.7559 68.8985C20.5617 68.7079 20.4076 68.4816 20.3024 68.2326C20.1973 67.9835 20.1431 67.7166 20.1431 67.447C20.1431 67.1774 20.1973 66.9105 20.3024 66.6615C20.4076 66.4124 20.5617 66.1862 20.7559 65.9956L37.0489 50.0056C37.5833 49.477 37.8831 48.7626 37.8831 48.018C37.8831 47.2734 37.5833 46.5589 37.0489 46.0303Z" fill="white"/>
</g>
<defs>
<clipPath id="clip0_1995_24609">
<rect width="96" height="96" fill="white"/>
</clipPath>
</defs>
</svg>
