<svg xmlns="http://www.w3.org/2000/svg" width="52" height="52" viewBox="0 0 46 52" class="default-thema">
  <g>
    <path d="M23.426 9.819l3.875-2.237v-5.345l-3.875-2.237z"></path>
    <path d="M9.161 33.085v-15.033l12.949-7.472v-10.58l-21.452 12.386a1.314 1.314 0 0 0-.658 1.14v24.774l.007.073z"></path>
    <path d="M35.991 46.69l-12.957 7.487-12.883-7.443-9.161 5.293 21.386 12.35a1.322 1.322 0 0 0 1.316 0l21.453-12.386.015-.007z" transform="translate(-.266 -12.552)"></path>
    <path d="M54.893 15.136l-8.5-4.906v5.337l-9.143 5.279 9.139 5.272v9.622l9.161 5.286v-24.749a1.346 1.346 0 0 0-.657-1.141z" transform="translate(27.236 7.48) translate(-37.25 -10.23)"></path>
    <path d="M18.228 23.288l.007 10.478 8.891-5.133v-10.478z"></path>
  </g>
</svg>
