<svg width="32" height="32" viewBox="0 0 32 32" fill="none" xmlns="http://www.w3.org/2000/svg">
  <circle cx="16" cy="16" r="16" fill="#335DE5" />
  <path
    d="M17.9926 17.2268C16.4455 18.1729 14.3747 18.6602 12.2775 18.5561C10.5142 18.471 9.06801 17.8465 8.19356 16.82C7.42482 15.9022 7.12693 14.6911 7.32873 13.2979C7.39712 12.8349 7.53728 12.3849 7.74433 11.9638L7.77316 11.9047C8.49899 10.5288 9.57617 9.36267 10.8987 8.52108C12.2212 7.67955 13.7435 7.19154 15.3157 7.10518C16.8879 7.01878 18.4559 7.33698 19.8653 8.0284C21.2747 8.71986 22.477 9.76072 23.3538 11.0486C24.2306 12.3364 24.7518 13.8268 24.8659 15.3732C24.9801 16.9196 24.6833 18.4686 24.0049 19.8677C23.3265 21.2669 22.2897 22.4681 20.9967 23.3529C19.7036 24.2378 18.1989 24.7759 16.6305 24.9143L16.7266 26C18.4875 25.8455 20.1771 25.2421 21.6291 24.2491C23.0811 23.256 24.2453 21.9077 25.007 20.3369C25.7687 18.7661 26.1016 17.0269 25.973 15.2909C25.8444 13.5548 25.2587 11.8816 24.2735 10.4363C23.2884 8.99091 21.9379 7.82319 20.3549 7.0481C18.772 6.27303 17.0113 5.91736 15.2463 6.01615C13.4812 6.11494 11.7728 6.66476 10.2893 7.61146C8.80572 8.55814 7.59825 9.86905 6.78581 11.4151L6.74737 11.4931C6.49053 12.0157 6.31712 12.5742 6.23327 13.1489C5.99304 14.8472 6.3654 16.3587 7.33833 17.5225C8.40256 18.7951 10.1346 19.552 12.2126 19.6513C14.7423 19.7767 17.2575 19.0978 19.0424 17.8489L17.9926 17.2268Z"
    fill="white" />
  <path
    d="M20.1088 18.4614C19.1023 19.3224 16.7624 20.8836 12.8802 21.0964C8.53444 21.333 6.7231 19.9421 6.70628 19.9279L6.35554 20.3537L6.70868 19.935L6 20.7724C6.07687 20.8362 7.81374 22.2176 11.8929 22.2176C12.2268 22.2176 12.5775 22.2176 12.9427 22.1892C17.6344 21.9314 20.2121 19.9161 21.1106 19.0551L20.1088 18.4614Z"
    fill="white" />
  <path
    d="M21.992 19.5876C21.3968 20.358 20.6642 21.0152 19.83 21.5273C16.8895 23.3959 13.1491 23.6372 10.5306 23.5071L10.4753 24.5975C10.915 24.6188 11.3378 24.6283 11.7486 24.6283C19.1333 24.6283 22.117 21.3167 22.9506 20.134L21.9896 19.5782"
    fill="white" />
  <path
    d="M21.7116 15.4587C22.2012 15.4587 22.5981 15.068 22.5981 14.586C22.5981 14.104 22.2012 13.7132 21.7116 13.7132C21.2221 13.7132 20.8253 14.104 20.8253 14.586C20.8253 15.068 21.2221 15.4587 21.7116 15.4587Z"
    fill="white" />
</svg>
